<?xml version="1.0" encoding="UTF-8" standalone="no"?>
<!-- Created with Inkscape (http://www.inkscape.org/) -->

<svg
   width="100"
   height="100"
   viewBox="0 0 26.458333 26.458333"
   version="1.1"
   id="svg1"
   xml:space="preserve"
   inkscape:version="1.3.2 (091e20e, 2023-11-25)"
   sodipodi:docname="chit-chat.svg"
   xmlns:inkscape="http://www.inkscape.org/namespaces/inkscape"
   xmlns:sodipodi="http://sodipodi.sourceforge.net/DTD/sodipodi-0.dtd"
   xmlns:xlink="http://www.w3.org/1999/xlink"
   xmlns="http://www.w3.org/2000/svg"
   xmlns:svg="http://www.w3.org/2000/svg"><sodipodi:namedview
     id="namedview1"
     pagecolor="#ffffff"
     bordercolor="#000000"
     borderopacity="0.25"
     inkscape:showpageshadow="2"
     inkscape:pageopacity="0.0"
     inkscape:pagecheckerboard="0"
     inkscape:deskcolor="#d1d1d1"
     inkscape:document-units="px"
     showgrid="false"
     inkscape:zoom="6.4346717"
     inkscape:cx="49.963699"
     inkscape:cy="50.041403"
     inkscape:window-width="1920"
     inkscape:window-height="1123"
     inkscape:window-x="0"
     inkscape:window-y="43"
     inkscape:window-maximized="0"
     inkscape:current-layer="layer1" /><defs
     id="defs1"><linearGradient
       id="linearGradient7"
       inkscape:collect="always"><stop
         style="stop-color:#72ddf2;stop-opacity:1;"
         offset="0"
         id="stop7" /><stop
         style="stop-color:#4ab4ec;stop-opacity:1;"
         offset="1"
         id="stop8" /></linearGradient><linearGradient
       id="linearGradient5"
       inkscape:collect="always"><stop
         style="stop-color:#218fac;stop-opacity:1;"
         offset="0"
         id="stop5" /><stop
         style="stop-color:#135980;stop-opacity:1;"
         offset="1"
         id="stop6" /></linearGradient><linearGradient
       inkscape:collect="always"
       xlink:href="#linearGradient5"
       id="linearGradient6"
       x1="10.608544"
       y1="7.730257"
       x2="10.608544"
       y2="24.712151"
       gradientUnits="userSpaceOnUse" /><linearGradient
       inkscape:collect="always"
       xlink:href="#linearGradient7"
       id="linearGradient8"
       x1="14.761501"
       y1="1.4391435"
       x2="14.761501"
       y2="20.189129"
       gradientUnits="userSpaceOnUse" /></defs><g
     inkscape:label="Layer 1"
     inkscape:groupmode="layer"
     id="layer1"><path
       style="fill:url(#linearGradient6);fill-opacity:1"
       d="M 4.4937234,24.757501 C 6.113779,24.259668 7.474161,23.845932 7.516794,23.838088 c 0.05571,-0.01025 0.158018,0.0182 0.363724,0.101166 1.011643,0.407997 2.10279,0.641722 3.20195,0.685862 1.79766,0.07219 3.393246,-0.274555 4.960937,-1.078084 2.739549,-1.404171 4.690561,-4.014453 5.244179,-7.016248 0.121167,-0.656983 0.153815,-1.038626 0.153815,-1.798058 0,-0.759431 -0.03265,-1.141075 -0.153815,-1.798058 C 20.632017,9.3800881 18.029279,6.4222925 14.573245,5.3043769 13.55041,4.9735229 12.654922,4.8344394 11.547556,4.8344394 c -0.888479,0 -1.549233,0.077345 -2.362867,0.276589 -2.759056,0.6756401 -5.1287056,2.5531484 -6.4502196,5.1106026 -0.462892,0.895809 -0.781551,1.843895 -0.952109,2.832754 -0.112819,0.654096 -0.130931,0.898458 -0.129182,1.742937 0.0014,0.677173 0.01066,0.868881 0.05987,1.240234 0.120399,0.908458 0.319692,1.660774 0.636329,2.402096 l 0.11279,0.264067 -0.915391,2.99482 c -0.855806,2.799881 -0.91539,3.007433 -0.915377,3.188606 1.1e-5,0.148741 0.01402,0.22386 0.06026,0.323166 0.112974,0.242603 0.399708,0.427107 0.688554,0.443063 0.159257,0.0088 0.320388,-0.03757 3.113505,-0.895873 z"
       id="path2" /><path
       style="fill:url(#linearGradient8);fill-opacity:1"
       d="m 21.814269,20.44007 c -1.620056,-0.497833 -2.980438,-0.911569 -3.023071,-0.919413 -0.05571,-0.01025 -0.158018,0.0182 -0.363724,0.101166 -1.011643,0.407997 -2.10279,0.641722 -3.20195,0.685862 -1.79766,0.07219 -3.393246,-0.274555 -4.960937,-1.078084 C 7.5250381,17.82543 5.5740262,15.215148 5.0204084,12.213353 4.8992414,11.55637 4.8665934,11.174727 4.8665934,10.415295 c 0,-0.7594311 0.03265,-1.1410747 0.153815,-1.7980575 0.6555674,-3.5545802 3.2583048,-6.5123758 6.7143386,-7.63029134 1.022835,-0.330854 1.918323,-0.4699375 3.025689,-0.4699375 0.888479,0 1.549233,0.0773455 2.362867,0.27658895 2.759056,0.67564009 5.128706,2.55314839 6.45022,5.11060269 0.462892,0.8958091 0.781551,1.8438952 0.952109,2.8327539 0.112819,0.6540965 0.130931,0.8984579 0.129182,1.7429368 -0.0014,0.677173 -0.01066,0.868881 -0.05987,1.240234 -0.120399,0.908458 -0.319692,1.660774 -0.636329,2.402096 l -0.11279,0.264067 0.915391,2.99482 c 0.855806,2.799881 0.91539,3.007433 0.915377,3.188606 -1.1e-5,0.148741 -0.01402,0.22386 -0.06026,0.323166 -0.112974,0.242603 -0.399708,0.427107 -0.688554,0.443063 -0.159257,0.0088 -0.320388,-0.03757 -3.113505,-0.895873 z"
       id="path1" /><path
       style="fill:#ffffff;fill-opacity:1;stroke-width:1.13792"
       d="m 20.359487,11.48743 c 0.08095,-0.04914 0.20106,-0.159094 0.266904,-0.244353 0.415802,-0.538408 0.319168,-1.3599579 -0.20179,-1.7155569 l -0.134787,-0.092004 h -0.633036 c -0.620323,0 -0.635517,0.00164 -0.756555,0.081718 -0.161345,0.1067423 -0.340676,0.3383242 -0.426761,0.5510999 -0.05783,0.142934 -0.06886,0.212963 -0.06895,0.437807 -1.31e-4,0.311377 0.05287,0.495709 0.205406,0.714328 0.225308,0.322925 0.375649,0.373926 1.0727,0.36391 0.514005,-0.0074 0.53404,-0.01023 0.676871,-0.09695 z"
       id="path10" /><path
       style="fill:#ffffff;fill-opacity:1;stroke-width:1.13792"
       d="m 15.968223,11.512589 c 0.161613,-0.07789 0.367628,-0.321743 0.451519,-0.534448 0.09766,-0.247612 0.110506,-0.601768 0.03165,-0.872446 -0.07868,-0.2700896 -0.268909,-0.5165169 -0.476266,-0.6169753 -0.144934,-0.070217 -0.185701,-0.073626 -0.761427,-0.063696 -0.601455,0.010372 -0.609758,0.011498 -0.738522,0.099505 -0.13697,0.09362 -0.317262,0.3225552 -0.381396,0.4842963 -0.07232,0.182391 -0.101907,0.463939 -0.0698,0.664225 0.06067,0.378397 0.34604,0.768979 0.638865,0.874396 0.192111,0.06916 1.142187,0.04379 1.305371,-0.03486 z"
       id="path9" /><path
       style="fill:#ffffff;fill-opacity:1;stroke-width:1.13792"
       d="m 11.547593,11.487611 c 0.296448,-0.179037 0.466856,-0.509559 0.482662,-0.936165 0.0177,-0.477866 -0.1236,-0.8237936 -0.418894,-1.0255 -0.131422,-0.089771 -0.136771,-0.090499 -0.740672,-0.1009167 -0.56104,-0.00967 -0.619249,-0.00518 -0.749307,0.057912 -0.2002194,0.097124 -0.3924074,0.3269472 -0.4916114,0.5878767 -0.07363,0.193661 -0.08054,0.238051 -0.07144,0.458698 0.01269,0.307396 0.08592,0.504699 0.271862,0.732407 0.2446424,0.299597 0.3416514,0.329865 1.0286694,0.320967 0.526579,-0.0069 0.546917,-0.0096 0.688727,-0.09528 z"
       id="path8" /></g></svg>
